<?xml version="1.0" encoding="UTF-8" standalone="no"?>
<!DOCTYPE svg PUBLIC "-//W3C//DTD SVG 1.1//EN" "http://www.w3.org/Graphics/SVG/1.1/DTD/svg11.dtd">
<svg width="100%" height="100%" viewBox="0 0 2064 2154" version="1.1" xmlns="http://www.w3.org/2000/svg" xmlns:xlink="http://www.w3.org/1999/xlink" xml:space="preserve" xmlns:serif="http://www.serif.com/" style="fill-rule:evenodd;clip-rule:evenodd;stroke-linejoin:round;stroke-miterlimit:2;">
    <path id="outline" d="M679.008,0L1398.122,0C1397.583,11.871 1365.806,364.253 1364.046,372.328C1362.067,381.407 1361.484,399.692 1361.408,402.081C1361.31,405.158 1356.073,444.519 1355.352,463.337C1354.795,477.876 1342.458,522.436 1359.303,551.767C1379.613,587.132 1354.034,596.166 1370.734,642.946C1382.143,674.904 1377.519,676.689 1394.795,705.903C1417.205,743.797 1430.086,774.659 1445.932,798.89C1449.388,804.176 1447.026,805.463 1486.579,866.57C1504.211,893.811 1503.053,894.289 1520.918,921.428C1532.219,938.596 1532.219,938.379 1544.609,954.999C1560.328,976.085 1557.306,978.295 1575.722,996.874C1597.517,1018.862 1584.148,1039.237 1592.216,1043.154C1705.342,1098.066 1751.111,1219.543 1744.197,1228.079C1733.787,1240.93 1716.001,1270.686 1628.911,1305.871C1598.271,1318.25 1563.622,1323.095 1557.81,1323.908C1551.424,1324.801 1563.826,1334.908 1555.352,1353.891C1547.521,1371.435 1555.866,1484.736 1487.212,1548.082C1477.35,1557.181 1476.498,1555.919 1466.958,1565.338C1463.597,1568.657 1458.088,1568.129 1458.248,1569.636C1459.554,1581.937 1466.811,1580.7 1469.144,1634.793C1469.176,1644.682 1469.252,1644.466 1469.159,1654.551C1468.382,1671.506 1463.682,1774.085 1401.483,1855.623C1377.173,1887.491 1370.149,1886.436 1366.489,1885.886C1319.138,1878.776 1269.518,1830.296 1268.816,1829.371C1264.361,1825.727 1264.426,1825.9 1260.403,1821.886C1238.815,1801.4 1211.316,1763.946 1207.409,1758.624C1205.523,1754.596 1205.293,1754.864 1203.04,1751.048C1197.994,1743.978 1199.076,1737.291 1192.072,1742.647C1191.005,1743.463 1190.146,1741.251 1176.37,1748.593C1174.535,1749.192 1174.734,1749.295 1173.044,1749.848C1172.712,1749.956 1172.735,1749.942 1168.867,1751.121C1130.102,1764.198 1119.191,1741.281 1116.141,1757.379C1111.608,1781.301 1088.036,1857.801 1010.773,1948.806C977.321,1988.206 945.499,2012.747 943.577,2013.908C938.391,2017.042 933.935,2026.218 925.348,2012.543C924.237,2010.774 801.929,1888.166 784.221,1763.129C783.083,1755.091 769.833,1762.231 744.499,1752.455C680.567,1727.783 674.749,1680.704 665.573,1685.085C617.968,1707.812 553.019,1712.109 520.958,1714.114C518.745,1714.123 505.172,1714.179 493.296,1714.157C399.653,1708.547 366.075,1693.075 362.902,1684.193C354.847,1661.649 364.249,1631.478 365.609,1627.114C367.34,1621.559 383.383,1553.625 434.868,1469.373C459.374,1429.271 480.945,1410.384 485.835,1406.103C492.075,1400.64 487.123,1399.704 481.658,1393.59C479.535,1391.214 470.71,1389.448 466.916,1358.327C464.953,1342.229 462.901,1342.036 467.409,1326.538C468.554,1322.599 467.432,1265.297 491.247,1172.486C529.616,1022.96 583.35,882.052 705.611,631.626C709.034,624.615 695.016,596.083 705.649,524.629C711.305,486.613 717.105,487.193 718.792,479.165C722.763,460.267 717.312,460.419 713.59,413.918C713.269,409.908 709.265,378.761 703.176,297.291C686.196,70.089 682.241,70.586 679.008,0Z" style="fill-opacity:1;"/>
</svg>
