<svg width="263" height="45" viewBox="0 0 263 45" fill="none" xmlns="http://www.w3.org/2000/svg">
<g clip-path="url(#clip0_5_271)">
<path d="M2.61 36C2.31 36 2.16 35.85 2.16 35.55V12.456C2.16 12.156 2.31 12.006 2.61 12.006H12.564C12.852 12.006 13.092 12.102 13.284 12.294L16.884 15.894C17.088 16.098 17.19 16.338 17.19 16.614V22.824C17.19 23.112 17.088 23.352 16.884 23.544L13.284 27.144C13.092 27.348 12.852 27.45 12.564 27.45H8.154V35.55C8.154 35.85 8.004 36 7.704 36H2.61ZM9.504 22.554C10.5 22.554 11.178 22.356 11.538 21.96C11.91 21.564 12.096 20.814 12.096 19.71C12.096 18.606 11.91 17.856 11.538 17.46C11.178 17.064 10.5 16.866 9.504 16.866C8.52 16.866 7.842 17.064 7.47 17.46C7.11 17.856 6.93 18.606 6.93 19.71C6.93 20.814 7.11 21.564 7.47 21.96C7.842 22.356 8.52 22.554 9.504 22.554ZM18.3797 36C18.0797 36 17.9297 35.85 17.9297 35.55V16.65C17.9297 16.35 18.0797 16.2 18.3797 16.2H21.1157C21.3437 16.2 21.5417 16.302 21.7097 16.506L23.4737 18.54L25.4357 16.416C25.5677 16.272 25.7357 16.2 25.9397 16.2H27.8837C28.1837 16.2 28.3337 16.35 28.3337 16.65V20.52C28.3337 20.712 28.3217 20.844 28.2977 20.916C28.2737 20.976 28.2077 21.042 28.0997 21.114L23.6357 24.408V35.55C23.6357 35.85 23.4857 36 23.1857 36H18.3797ZM36.3845 36C36.2645 36 36.1325 35.982 35.9885 35.946C35.8565 35.91 35.7305 35.88 35.6105 35.856L32.4065 35.064L28.7345 33.84C28.3745 33.72 28.1945 33.372 28.1945 32.796V20.826C28.1945 20.538 28.2965 20.298 28.5005 20.106L32.1005 16.506C32.3045 16.302 32.5445 16.2 32.8205 16.2H38.5805C38.8565 16.2 39.0965 16.302 39.3005 16.506L42.9005 20.106C43.1045 20.298 43.2065 20.538 43.2065 20.826V28.206H33.5405L33.4145 30.6L35.9705 31.446L40.5605 31.77C40.7645 31.806 40.8665 31.944 40.8665 32.184V35.55C40.8665 35.85 40.7165 36 40.4165 36H36.3845ZM35.6645 25.38H36.0065C36.5945 25.38 37.0625 25.158 37.4105 24.714C37.7705 24.27 37.9505 23.67 37.9505 22.914V22.554C37.9505 21.81 37.7705 21.216 37.4105 20.772C37.0625 20.328 36.5945 20.106 36.0065 20.106H35.6465C35.0705 20.106 34.6085 20.328 34.2605 20.772C33.9245 21.216 33.7565 21.81 33.7565 22.554V22.914C33.7565 23.67 33.9245 24.27 34.2605 24.714C34.6085 25.158 35.0765 25.38 35.6645 25.38ZM44.6853 36C44.3853 36 44.2353 35.85 44.2353 35.55V32.634C44.2353 32.358 44.3253 32.178 44.5053 32.094L48.1773 29.916V28.044L44.5053 26.064C44.3253 25.956 44.2353 25.77 44.2353 25.506V19.764C44.2353 19.632 44.2533 19.524 44.2893 19.44C44.3373 19.356 44.4033 19.284 44.4873 19.224L48.3213 16.416C48.4533 16.32 48.5613 16.26 48.6453 16.236C48.7293 16.212 48.8133 16.2 48.8973 16.2H53.2713C53.5713 16.2 53.7213 16.35 53.7213 16.65V19.476C53.7213 19.68 53.7033 19.818 53.6673 19.89C53.6433 19.962 53.5833 20.022 53.4873 20.07L50.0853 21.906V23.994L53.7213 25.794C53.9253 25.878 54.0273 26.058 54.0273 26.334V31.86C54.0273 32.16 53.9253 32.4 53.7213 32.58L49.8873 35.766C49.6953 35.922 49.4553 36 49.1673 36H44.6853ZM55.5331 36C55.2331 36 55.0831 35.85 55.0831 35.55V32.634C55.0831 32.358 55.1731 32.178 55.3531 32.094L59.0251 29.916V28.044L55.3531 26.064C55.1731 25.956 55.0831 25.77 55.0831 25.506V19.764C55.0831 19.632 55.1011 19.524 55.1371 19.44C55.1851 19.356 55.2511 19.284 55.3351 19.224L59.1691 16.416C59.3011 16.32 59.4091 16.26 59.4931 16.236C59.5771 16.212 59.6611 16.2 59.7451 16.2H64.1191C64.4191 16.2 64.5691 16.35 64.5691 16.65V19.476C64.5691 19.68 64.5511 19.818 64.5151 19.89C64.4911 19.962 64.4311 20.022 64.3351 20.07L60.9331 21.906V23.994L64.5691 25.794C64.7731 25.878 64.8751 26.058 64.8751 26.334V31.86C64.8751 32.16 64.7731 32.4 64.5691 32.58L60.7351 35.766C60.5431 35.922 60.3031 36 60.0151 36H55.5331ZM74.5594 36C74.2834 36 74.0434 35.898 73.8394 35.694L70.2394 32.094C70.0354 31.902 69.9334 31.662 69.9334 31.374V20.826C69.9334 20.538 70.0354 20.298 70.2394 20.106L73.8394 16.506C74.0434 16.302 74.2834 16.2 74.5594 16.2H84.1894C84.4894 16.2 84.6394 16.35 84.6394 16.65V35.55C84.6394 35.85 84.4894 36 84.1894 36H80.4454C80.2894 36 80.1694 35.97 80.0854 35.91C80.0134 35.85 79.9294 35.778 79.8334 35.694L78.9334 34.794L78.0334 35.694C77.8414 35.898 77.6014 36 77.3134 36H74.5594ZM76.6654 31.806H77.9254C78.3094 31.806 78.5734 31.728 78.7174 31.572C78.8614 31.416 78.9334 31.14 78.9334 30.744V20.394H76.6654C76.2694 20.394 75.9994 20.472 75.8554 20.628C75.7114 20.784 75.6394 21.06 75.6394 21.456V30.744C75.6394 31.14 75.7114 31.416 75.8554 31.572C75.9994 31.728 76.2694 31.806 76.6654 31.806ZM87.1228 36C86.8228 36 86.6728 35.85 86.6728 35.55V16.65C86.6728 16.35 86.8228 16.2 87.1228 16.2H96.7528C97.0288 16.2 97.2688 16.302 97.4728 16.506L101.073 20.106C101.277 20.298 101.379 20.538 101.379 20.826V35.55C101.379 35.85 101.229 36 100.929 36H96.1228C95.8228 36 95.6728 35.85 95.6728 35.55V21.546C95.6728 20.982 95.3908 20.7 94.8268 20.7H92.3788V35.55C92.3788 35.85 92.2288 36 91.9288 36H87.1228ZM108.611 41.994C108.311 41.994 108.161 41.844 108.161 41.544V38.736C108.161 38.508 108.251 38.376 108.431 38.34L111.077 37.674L112.931 36.684C113.111 36.588 113.201 36.402 113.201 36.126V33.174L111.527 34.74C111.323 34.944 111.083 35.046 110.807 35.046L107.747 35.154C107.471 35.154 107.231 35.058 107.027 34.866L103.733 31.554C103.529 31.362 103.427 31.122 103.427 30.834V16.65C103.427 16.35 103.577 16.2 103.877 16.2H108.683C108.983 16.2 109.133 16.35 109.133 16.65V30.204C109.133 30.6 109.205 30.876 109.349 31.032C109.493 31.188 109.757 31.266 110.141 31.266H112.427V16.65C112.427 16.35 112.577 16.2 112.877 16.2H117.683C117.983 16.2 118.133 16.35 118.133 16.65V38.286C118.133 38.646 118.031 38.886 117.827 39.006L115.433 40.536L112.391 41.796C112.211 41.868 112.073 41.916 111.977 41.94C111.893 41.976 111.755 41.994 111.563 41.994H108.611ZM133.741 36C133.585 36 133.459 35.976 133.363 35.928C133.279 35.88 133.225 35.814 133.201 35.73L131.131 27.576H129.457V23.256H131.131L133.201 16.506C133.225 16.41 133.279 16.344 133.363 16.308C133.459 16.26 133.585 16.236 133.741 16.236H138.295C138.595 16.236 138.745 16.386 138.745 16.686V18.594C138.745 18.762 138.733 18.894 138.709 18.99C138.685 19.086 138.649 19.188 138.601 19.296L135.937 25.434V26.046L138.745 32.94C138.805 33.072 138.847 33.192 138.871 33.3C138.895 33.396 138.907 33.504 138.907 33.624V35.55C138.907 35.85 138.757 36 138.457 36H133.741ZM124.201 36C123.901 36 123.751 35.85 123.751 35.55V12.456C123.751 12.156 123.901 12.006 124.201 12.006H129.007C129.307 12.006 129.457 12.156 129.457 12.456V35.55C129.457 35.85 129.307 36 129.007 36H124.201ZM148.042 36C147.922 36 147.79 35.982 147.646 35.946C147.514 35.91 147.388 35.88 147.268 35.856L144.064 35.064L140.392 33.84C140.032 33.72 139.852 33.372 139.852 32.796V20.826C139.852 20.538 139.954 20.298 140.158 20.106L143.758 16.506C143.962 16.302 144.202 16.2 144.478 16.2H150.238C150.514 16.2 150.754 16.302 150.958 16.506L154.558 20.106C154.762 20.298 154.864 20.538 154.864 20.826V28.206H145.198L145.072 30.6L147.628 31.446L152.218 31.77C152.422 31.806 152.524 31.944 152.524 32.184V35.55C152.524 35.85 152.374 36 152.074 36H148.042ZM147.322 25.38H147.664C148.252 25.38 148.72 25.158 149.068 24.714C149.428 24.27 149.608 23.67 149.608 22.914V22.554C149.608 21.81 149.428 21.216 149.068 20.772C148.72 20.328 148.252 20.106 147.664 20.106H147.304C146.728 20.106 146.266 20.328 145.918 20.772C145.582 21.216 145.414 21.81 145.414 22.554V22.914C145.414 23.67 145.582 24.27 145.918 24.714C146.266 25.158 146.734 25.38 147.322 25.38ZM161.635 41.994C161.335 41.994 161.185 41.844 161.185 41.544V38.736C161.185 38.508 161.275 38.376 161.455 38.34L164.101 37.674L165.955 36.684C166.135 36.588 166.225 36.402 166.225 36.126V33.174L164.551 34.74C164.347 34.944 164.107 35.046 163.831 35.046L160.771 35.154C160.495 35.154 160.255 35.058 160.051 34.866L156.757 31.554C156.553 31.362 156.451 31.122 156.451 30.834V16.65C156.451 16.35 156.601 16.2 156.901 16.2H161.707C162.007 16.2 162.157 16.35 162.157 16.65V30.204C162.157 30.6 162.229 30.876 162.373 31.032C162.517 31.188 162.781 31.266 163.165 31.266H165.451V16.65C165.451 16.35 165.601 16.2 165.901 16.2H170.707C171.007 16.2 171.157 16.35 171.157 16.65V38.286C171.157 38.646 171.055 38.886 170.851 39.006L168.457 40.536L165.415 41.796C165.235 41.868 165.097 41.916 165.001 41.94C164.917 41.976 164.779 41.994 164.587 41.994H161.635ZM180.915 36C180.639 36 180.399 35.898 180.195 35.694L177.189 32.706C176.997 32.502 176.901 32.262 176.901 31.986V20.394H176.145C175.845 20.394 175.695 20.244 175.695 19.944V16.65C175.695 16.35 175.845 16.2 176.145 16.2H176.901V13.95C176.901 13.65 177.051 13.5 177.351 13.5H182.139C182.439 13.5 182.589 13.65 182.589 13.95V16.2H184.335C184.635 16.2 184.785 16.35 184.785 16.65V19.944C184.785 20.244 184.635 20.394 184.335 20.394H182.589V30.006C182.589 30.234 182.661 30.42 182.805 30.564L184.569 32.346C184.689 32.454 184.749 32.634 184.749 32.886V35.55C184.749 35.85 184.599 36 184.299 36H180.915ZM190.365 36C190.089 36 189.849 35.898 189.645 35.694L186.045 32.094C185.841 31.902 185.739 31.662 185.739 31.374V20.826C185.739 20.538 185.841 20.298 186.045 20.106L189.645 16.506C189.849 16.302 190.089 16.2 190.365 16.2H195.819C196.107 16.2 196.347 16.302 196.539 16.506L200.139 20.106C200.343 20.298 200.445 20.538 200.445 20.826V31.374C200.445 31.662 200.343 31.902 200.139 32.094L196.539 35.694C196.347 35.898 196.107 36 195.819 36H190.365ZM192.471 31.806H193.731C194.115 31.806 194.379 31.728 194.523 31.572C194.667 31.416 194.739 31.14 194.739 30.744V21.456C194.739 21.06 194.667 20.784 194.523 20.628C194.379 20.472 194.115 20.394 193.731 20.394H192.471C192.075 20.394 191.805 20.472 191.661 20.628C191.517 20.784 191.445 21.06 191.445 21.456V30.744C191.445 31.14 191.517 31.416 191.661 31.572C191.805 31.728 192.075 31.806 192.471 31.806ZM205.941 36C205.641 36 205.491 35.85 205.491 35.55V32.634C205.491 32.358 205.581 32.178 205.761 32.094L209.433 29.916V28.044L205.761 26.064C205.581 25.956 205.491 25.77 205.491 25.506V19.764C205.491 19.632 205.509 19.524 205.545 19.44C205.593 19.356 205.659 19.284 205.743 19.224L209.577 16.416C209.709 16.32 209.817 16.26 209.901 16.236C209.985 16.212 210.069 16.2 210.153 16.2H214.527C214.827 16.2 214.977 16.35 214.977 16.65V19.476C214.977 19.68 214.959 19.818 214.923 19.89C214.899 19.962 214.839 20.022 214.743 20.07L211.341 21.906V23.994L214.977 25.794C215.181 25.878 215.283 26.058 215.283 26.334V31.86C215.283 32.16 215.181 32.4 214.977 32.58L211.143 35.766C210.951 35.922 210.711 36 210.423 36H205.941ZM221.037 36C220.761 36 220.521 35.898 220.317 35.694L217.311 32.706C217.119 32.502 217.023 32.262 217.023 31.986V20.394H216.267C215.967 20.394 215.817 20.244 215.817 19.944V16.65C215.817 16.35 215.967 16.2 216.267 16.2H217.023V13.95C217.023 13.65 217.173 13.5 217.473 13.5H222.261C222.561 13.5 222.711 13.65 222.711 13.95V16.2H224.457C224.757 16.2 224.907 16.35 224.907 16.65V19.944C224.907 20.244 224.757 20.394 224.457 20.394H222.711V30.006C222.711 30.234 222.783 30.42 222.927 30.564L224.691 32.346C224.811 32.454 224.871 32.634 224.871 32.886V35.55C224.871 35.85 224.721 36 224.421 36H221.037ZM230.487 36C230.211 36 229.971 35.898 229.767 35.694L226.167 32.094C225.963 31.902 225.861 31.662 225.861 31.374V20.826C225.861 20.538 225.963 20.298 226.167 20.106L229.767 16.506C229.971 16.302 230.211 16.2 230.487 16.2H240.117C240.417 16.2 240.567 16.35 240.567 16.65V35.55C240.567 35.85 240.417 36 240.117 36H236.373C236.217 36 236.097 35.97 236.013 35.91C235.941 35.85 235.857 35.778 235.761 35.694L234.861 34.794L233.961 35.694C233.769 35.898 233.529 36 233.241 36H230.487ZM232.593 31.806H233.853C234.237 31.806 234.501 31.728 234.645 31.572C234.789 31.416 234.861 31.14 234.861 30.744V20.394H232.593C232.197 20.394 231.927 20.472 231.783 20.628C231.639 20.784 231.567 21.06 231.567 21.456V30.744C231.567 31.14 231.639 31.416 231.783 31.572C231.927 31.728 232.197 31.806 232.593 31.806ZM243.051 36C242.751 36 242.601 35.85 242.601 35.55V16.65C242.601 16.35 242.751 16.2 243.051 16.2H245.787C246.015 16.2 246.213 16.302 246.381 16.506L248.145 18.54L250.107 16.416C250.239 16.272 250.407 16.2 250.611 16.2H252.555C252.855 16.2 253.005 16.35 253.005 16.65V20.52C253.005 20.712 252.993 20.844 252.969 20.916C252.945 20.976 252.879 21.042 252.771 21.114L248.307 24.408V35.55C248.307 35.85 248.157 36 247.857 36H243.051ZM257.131 36C256.855 36 256.615 35.898 256.411 35.694L253.405 32.706C253.213 32.502 253.117 32.262 253.117 31.986V20.394H252.361C252.061 20.394 251.911 20.244 251.911 19.944V16.65C251.911 16.35 252.061 16.2 252.361 16.2H253.117V13.95C253.117 13.65 253.267 13.5 253.567 13.5H258.355C258.655 13.5 258.805 13.65 258.805 13.95V16.2H260.551C260.851 16.2 261.001 16.35 261.001 16.65V19.944C261.001 20.244 260.851 20.394 260.551 20.394H258.805V30.006C258.805 30.234 258.877 30.42 259.021 30.564L260.785 32.346C260.905 32.454 260.965 32.634 260.965 32.886V35.55C260.965 35.85 260.815 36 260.515 36H257.131Z" fill="white"/>
</g>
<defs>
<clipPath id="clip0_5_271">
<rect width="263" height="45" fill="white"/>
</clipPath>
</defs>
</svg>
